<?xml version="1.0" encoding="UTF-8" standalone="no"?>
<!DOCTYPE svg PUBLIC "-//W3C//DTD SVG 1.1//EN" "http://www.w3.org/Graphics/SVG/1.1/DTD/svg11.dtd">
<svg width="100%" height="100%" viewBox="0 0 1182 1182" version="1.1" xmlns="http://www.w3.org/2000/svg" xmlns:xlink="http://www.w3.org/1999/xlink" xml:space="preserve" xmlns:serif="http://www.serif.com/" style="fill-rule:evenodd;clip-rule:evenodd;stroke-linecap:round;stroke-linejoin:round;stroke-miterlimit:1.5;">
    <g transform="matrix(1,0,0,1,-19.0473,-8.79583)">
        <g transform="matrix(-7.5011e-17,1.74534,-2.09304,1.13747e-16,2410.38,-787)">
            <path d="M742.457,1117.19L564.174,1117.19L564.174,670.5C564.174,651.836 573.065,633.936 588.892,620.738C604.719,607.541 626.185,600.126 648.567,600.126L1111.75,600.126L1111.75,1117.19L742.457,1117.19C762.175,1117.19 779.859,1115.23 795.51,1111.3C811.161,1107.38 824.348,1101.89 835.069,1094.85C845.791,1087.81 855.28,1078.63 863.537,1067.32C871.794,1056.01 880.482,1039.61 889.601,1018.14L914.372,954.071L1083.75,600.126L945.428,600.126C945.428,600.126 898.198,734.638 871.533,810.579C869.198,817.23 861.896,821.807 853.586,821.83C845.276,821.852 837.937,817.314 835.55,810.677C808.247,734.753 759.833,600.126 759.833,600.126L737.665,600.126C734.823,600.126 732.126,601.167 730.286,602.973C728.446,604.778 727.65,607.166 728.109,609.505C738.225,661.053 786.97,909.432 796.889,959.975C798.141,966.353 797.608,972.885 795.332,979.063C789.419,995.116 781.663,1008.66 772.034,1019.7C760.449,1032.98 742.58,1039.61 718.426,1039.61C705.363,1039.61 690.697,1038.11 674.43,1035.11L683.673,1111.3C702.898,1115.23 722.493,1117.19 742.457,1117.19Z" style="fill:rgb(135,0,255);stroke:black;stroke-width:10.81px;"/>
        </g>
        <g transform="matrix(1.03855,0.190108,-0.1549,0.846215,35.0636,-18.8704)">
            <rect x="321.91" y="275.237" width="268.641" height="166.046" style="fill:rgb(255,20,4);"/>
        </g>
        <g transform="matrix(1.03855,0.190108,-0.1549,0.846215,172.226,-134.426)">
            <rect x="321.91" y="275.237" width="268.641" height="166.046" style="fill:white;"/>
        </g>
        <g transform="matrix(0.950469,0,0,0.940971,64.9053,45.3118)">
            <g transform="matrix(1.11096,0,0,1.11096,-189.885,-69.2655)">
                <path d="M171.174,517.268L170.921,217.882C245.848,175.245 338.327,137.588 436.119,109.896C649.575,49.451 844.918,47.752 928.061,98.443C948.709,111.032 962.438,126.852 967.805,145.806C994.784,241.081 839.673,420.802 573.206,496.258C547.38,503.571 424.504,528.227 424.332,530.097C399.037,805.009 819.025,1117.19 819.025,1117.19L170.921,1117.19L171.174,517.268ZM548.494,303.396C617.927,275.112 683.72,275.28 695.326,303.771C706.932,332.262 659.984,378.356 590.551,406.64C521.118,434.925 455.325,434.757 443.719,406.266C432.113,377.775 479.061,331.681 548.494,303.396Z" style="fill:rgb(0,164,255);stroke:black;stroke-width:31.73px;"/>
            </g>
            <g transform="matrix(0.122473,-1.86004,1.04342,0.0665017,-97.256,1890.54)">
                <rect x="871.528" y="376.065" width="12.869" height="170.159"/>
            </g>
            <g>
                <g transform="matrix(1.11096,0,0,1.03842,94.5341,-294.671)">
                    <ellipse cx="60.056" cy="409.568" rx="36.463" ry="109.508" style="stroke:black;stroke-width:11.31px;"/>
                </g>
                <g transform="matrix(0.578694,0,0,0.540912,110.821,-125.1)">
                    <ellipse cx="60.056" cy="409.568" rx="36.463" ry="109.508" style="fill:white;stroke:black;stroke-width:21.72px;"/>
                </g>
            </g>
        </g>
    </g>
</svg>
